<svg width="25" height="28" viewBox="0 0 25 28" fill="none" xmlns="http://www.w3.org/2000/svg">
    <path
        d="M9.55988 2.8495C9.20588 3.06468 8.92343 3.20813 8.64023 3.35158C7.57898 3.92542 6.5878 4.42678 5.52655 5.00061C5.45314 5.04306 5.39378 5.10658 5.35597 5.18318C5.31817 5.25977 5.3036 5.346 5.31413 5.43097V27.1536C5.31413 27.4405 5.24333 27.6557 4.96087 27.7274C4.43533 27.9475 3.86525 28.0364 3.29869 27.9865C2.73213 27.9365 2.18577 27.7493 1.70564 27.4405C1.35357 27.1889 1.05382 26.8695 0.823647 26.5005C0.593471 26.1316 0.437343 25.7203 0.364137 25.2901C0.187737 24.1283 0.116615 22.9526 0.151713 21.7777C0.0809131 16.0393 0.0101571 10.2353 0.0101571 4.5C-0.0450355 3.58784 0.125338 2.67615 0.505784 1.84753C0.826236 1.1551 1.38007 0.601317 2.06772 0.285857C2.75536 -0.0296031 3.5316 -0.0860066 4.25664 0.126797C5.2629 0.432497 6.21774 0.890724 7.08866 1.48589C7.86672 1.91626 8.64548 2.34587 9.35274 2.77625C9.41832 2.70527 9.48908 2.77399 9.55988 2.8495Z"
        fill="white" />
    <path
        d="M9.55999 24.9297V18.6923C9.5578 18.6085 9.57599 18.5253 9.61303 18.4502C9.65007 18.3752 9.70486 18.3105 9.77242 18.262C12.1789 16.9029 14.5845 15.5378 16.9194 14.1757C17.5559 13.817 18.193 13.4584 18.9003 13.0288C18.4912 12.7628 18.0658 12.5234 17.6267 12.3122C16.5654 11.6667 15.5035 11.0936 14.4422 10.448C14.3899 10.4122 14.3283 10.3931 14.2652 10.3931C14.2021 10.3931 14.1404 10.4122 14.0881 10.448C12.7467 11.308 11.47 12.097 10.1248 12.957C10.054 12.957 10.0541 13.0288 9.98329 13.0288V8.44036C9.98067 8.34608 9.99829 8.25233 10.035 8.16563C10.0716 8.07893 10.1265 8.00135 10.1957 7.93825C11.3993 7.07826 12.6014 6.28924 13.7342 5.42925C13.7995 5.39395 13.8725 5.37549 13.9466 5.37549C14.0207 5.37549 14.0936 5.39395 14.159 5.42925C15.7866 6.36097 17.4851 7.36517 19.112 8.2984C20.244 8.94396 21.3768 9.58877 22.5789 10.2343C23.4403 10.6884 24.1532 11.3858 24.6314 12.242C24.9328 12.7989 25.054 13.4376 24.9777 14.068C24.9015 14.6983 24.6318 15.2886 24.2065 15.7552C23.6477 16.4 22.9762 16.9347 22.2257 17.3325C20.598 18.2642 19.0412 19.2684 17.4135 20.2017C15.3611 21.4203 13.3802 22.5672 11.3277 23.7866C10.692 24.2124 10.1256 24.5711 9.55999 24.9297Z"
        fill="white" />
</svg>